<?xml version="1.0" encoding="UTF-8" standalone="no"?>
<!-- Created with Inkscape (http://www.inkscape.org/) -->

<svg
   xmlns:dc="http://purl.org/dc/elements/1.1/"
   xmlns:cc="http://creativecommons.org/ns#"
   xmlns:rdf="http://www.w3.org/1999/02/22-rdf-syntax-ns#"
   xmlns:svg="http://www.w3.org/2000/svg"
   xmlns="http://www.w3.org/2000/svg"
   xmlns:xlink="http://www.w3.org/1999/xlink"
   xmlns:sodipodi="http://sodipodi.sourceforge.net/DTD/sodipodi-0.dtd"
   xmlns:inkscape="http://www.inkscape.org/namespaces/inkscape"
   width="744.09448819"
   height="1052.3622047"
   id="svg2"
   version="1.1"
   inkscape:version="0.48.0 r9654"
   sodipodi:docname="cut_sphere.svg">
  <defs
     id="defs4">
    <inkscape:path-effect
       effect="spiro"
       id="path-effect3802"
       is_visible="true" />
    <inkscape:path-effect
       effect="spiro"
       id="path-effect3798"
       is_visible="true" />
    <inkscape:path-effect
       effect="spiro"
       id="path-effect3794"
       is_visible="true" />
    <inkscape:path-effect
       effect="spiro"
       id="path-effect3788"
       is_visible="true" />
    <inkscape:path-effect
       effect="spiro"
       id="path-effect3016"
       is_visible="true" />
  </defs>
  <sodipodi:namedview
     id="base"
     pagecolor="#ffffff"
     bordercolor="#666666"
     borderopacity="1.0"
     inkscape:pageopacity="0.0"
     inkscape:pageshadow="2"
     inkscape:zoom="0.80336722"
     inkscape:cx="599.33097"
     inkscape:cy="511.69485"
     inkscape:document-units="px"
     inkscape:current-layer="layer1"
     showgrid="false"
     inkscape:snap-smooth-nodes="true"
     inkscape:window-width="1680"
     inkscape:window-height="1001"
     inkscape:window-x="-4"
     inkscape:window-y="-4"
     inkscape:window-maximized="1" />
  <metadata
     id="metadata7">
    <rdf:RDF>
      <cc:Work
         rdf:about="">
        <dc:format>image/svg+xml</dc:format>
        <dc:type
           rdf:resource="http://purl.org/dc/dcmitype/StillImage" />
        <dc:title></dc:title>
      </cc:Work>
    </rdf:RDF>
  </metadata>
  <g
     inkscape:label="Layer 1"
     inkscape:groupmode="layer"
     id="layer1">
    <image
       y="206.11154"
       x="70.015472"
       id="image2993"
       xlink:href="file:///U:/Teach/MAS243/notes/images/cut_sphere.jpg"
       height="800"
       width="800"
       style="opacity:0.01" />
    <path
       style="fill:none;stroke:#000000;stroke-width:1px;stroke-linecap:butt;stroke-linejoin:miter;stroke-opacity:1"
       d="m 263.2669,368.05494 385.87585,-6.53499 27.38473,111.71728 -386.49822,8.40214 z"
       id="path2998"
       inkscape:connector-curvature="0" />
    <path
       style="fill:none;stroke:#000000;stroke-width:1px;stroke-linecap:butt;stroke-linejoin:miter;stroke-opacity:1"
       d="m 675.9051,472.92604 0.62238,370.93871 -386.49822,8.09095 0,-370.93871 m -0.62238,370.31633 -25.5176,-112.65085 -0.62238,-371.5611"
       id="path3002"
       inkscape:connector-curvature="0" />
    <path
       style="fill:none;stroke:#000000;stroke-width:1px;stroke-linecap:butt;stroke-linejoin:miter;stroke-opacity:1"
       d="m 263.88928,738.06009 139.41321,-3.11191"
       id="path3004"
       inkscape:connector-curvature="0" />
    <path
       style="fill:none;stroke:#000000;stroke-width:1px;stroke-linecap:butt;stroke-linejoin:miter;stroke-opacity:1"
       d="m 541.47094,732.45866 65.97232,-1.24476"
       id="path3006"
       inkscape:connector-curvature="0" />
    <path
       style="fill:none;stroke:#000000;stroke-width:1px;stroke-linecap:butt;stroke-linejoin:miter;stroke-opacity:1"
       d="M 675.9051,843.24237 654.74417,752.99722"
       id="path3008"
       inkscape:connector-curvature="0" />
    <path
       style="fill:none;stroke:#000000;stroke-width:1px;stroke-linecap:butt;stroke-linejoin:miter;stroke-opacity:1"
       d="m 649.14275,557.56977 0,-196.6722"
       id="path3010"
       inkscape:connector-curvature="0" />
    <path
       style="fill:none;stroke:#b3b3b3;stroke-width:1px;stroke-linecap:butt;stroke-linejoin:miter;stroke-opacity:1"
       d="m 369.69395,498.44364 c -3.59813,3.60089 -6.5615,7.83429 -8.71332,12.4476 -2.44666,5.24543 -3.8431,11.01733 -3.73429,16.80428 0.14315,7.61274 2.85217,14.95643 6.22381,21.78331 6.34494,12.84723 15.11033,24.38594 24.89521,34.8533 15.35332,16.42419 33.26303,30.32875 52.27996,42.32187 19.5811,12.34891 40.4259,22.74125 62.23803,30.49664 15.72468,5.59097 31.97816,9.81473 48.54567,11.82522 12.25656,1.48735 24.90866,1.72688 36.72045,-1.86714 5.18676,-1.57819 10.21319,-3.92309 14.31475,-7.46856 3.1632,-2.73432 5.72931,-6.15581 7.46856,-9.95809 l 2.48952,-16.80427"
       id="path3786"
       inkscape:path-effect="#path-effect3788"
       inkscape:original-d="m 369.69395,498.44364 c -9.95809,11.82522 -4.35666,1.24476 -8.71332,12.4476 -4.35667,11.20285 -4.35667,1.86715 -3.73429,16.80428 0.62238,14.93712 -2.48952,4.97904 6.22381,21.78331 8.71332,16.80427 -5.60143,3.1119 24.89521,34.8533 30.49664,31.7414 9.33571,14.93713 52.27996,42.32187 42.94424,27.38473 29.25187,19.29379 62.23803,30.49664 32.98616,11.20284 18.04904,9.95808 48.54567,11.82522 30.49664,1.86714 19.91618,2.48952 36.72045,-1.86714 16.80427,-4.35666 8.09094,-2.48952 14.31475,-7.46856 6.2238,-4.97905 7.46856,-9.95809 7.46856,-9.95809 l 2.48952,-16.80427"
       inkscape:connector-curvature="0" />
    <path
       style="fill:none;stroke:#b3b3b3;stroke-width:1px;stroke-linecap:butt;stroke-linejoin:miter;stroke-opacity:1"
       d="m 592.50613,529.56266 57.259,28.00711 L 675.9051,762.9553 289.40688,583.70975 263.2669,380.81374 443.13484,462.96795"
       id="path3790"
       inkscape:connector-curvature="0" />
    <path
       style="fill:none;stroke:#aad400;stroke-width:1px;stroke-linecap:butt;stroke-linejoin:miter;stroke-opacity:1"
       d="m 370.31633,498.44364 c 6.77855,-4.46176 13.62581,-8.81911 20.53855,-13.06999 4.91089,-3.01988 9.8572,-5.98737 14.93713,-8.71333 11.73028,-6.29462 24.24498,-11.31158 37.34283,-13.69237 8.81232,-1.60181 17.80659,-1.99813 26.76235,-1.86714 19.32302,0.28262 38.82873,3.07461 56.63662,10.58047 10.7556,4.53338 20.77412,10.73999 29.87426,18.04903 13.56341,10.89384 25.07093,24.20194 34.8533,38.58759 9.97076,14.66268 18.27572,30.67935 22.40569,47.92329 4.34956,18.16077 3.91621,37.4448 -1.24476,55.39185"
       id="path3792"
       inkscape:path-effect="#path-effect3794"
       inkscape:original-d="m 370.31633,498.44364 c 15.55951,-11.20285 5.60142,-4.35667 20.53855,-13.06999 14.93713,-8.71333 -1.24476,-1.24476 14.93713,-8.71333 16.18189,-7.46856 14.31476,-10.58047 37.34283,-13.69237 23.02807,-3.1119 -0.62238,-2.48952 26.76235,-1.86714 27.38474,0.62238 37.96521,3.11191 56.63662,10.58047 18.67141,7.46856 12.44761,4.35666 29.87426,18.04903 17.42665,13.69237 16.18189,8.09095 34.8533,38.58759 18.67141,30.49663 18.04903,24.89521 22.40569,47.92329 4.35667,23.02807 -1.24476,55.39185 -1.24476,55.39185"
       inkscape:connector-curvature="0" />
    <path
       style="fill:none;stroke:#88aa00;stroke-width:1px;stroke-linecap:butt;stroke-linejoin:miter;stroke-opacity:1"
       d="m 327.37208,600.51402 c -1.84657,27.41083 4.56992,55.32492 18.20033,79.17813 13.6304,23.85321 34.42187,43.55303 58.97484,55.87841 21.31744,10.70117 45.35531,15.84722 69.19632,15.10243 23.841,-0.74479 47.44422,-7.35162 68.34975,-18.83671 9.29642,-5.10727 18.07014,-11.16532 26.13997,-18.04903"
       id="path3800"
       inkscape:path-effect="#path-effect3802"
       inkscape:original-d="m 327.37208,600.51402 c -4.35666,54.14709 40.45473,122.60894 77.17517,135.05654 36.72045,12.44761 115.76275,9.33571 137.54607,-3.73428 21.78331,-13.06999 26.13997,-18.04903 26.13997,-18.04903"
       inkscape:connector-curvature="0" />
    <path
       sodipodi:type="arc"
       style="fill:#000000;fill-opacity:1;stroke:#88aa00;stroke-width:0;stroke-miterlimit:4;stroke-opacity:1;stroke-dasharray:none"
       id="path3811"
       sodipodi:cx="772.99646"
       sodipodi:cy="599.89166"
       sodipodi:rx="3.1119022"
       sodipodi:ry="3.1119022"
       d="m 770.17193,601.19779 a 3.1119022,3.1119022 0 1 1 0.002,0.004"
       sodipodi:start="2.708457"
       sodipodi:end="8.990388"
       sodipodi:open="true"
       transform="matrix(0.50012002,0,0,0.50012002,214.00607,360.86709)" />
    <path
       sodipodi:type="arc"
       style="fill:#000000;fill-opacity:1;stroke:#88aa00;stroke-width:0;stroke-miterlimit:4;stroke-opacity:1;stroke-dasharray:none"
       id="path3811-1"
       sodipodi:cx="772.99646"
       sodipodi:cy="599.89166"
       sodipodi:rx="3.1119022"
       sodipodi:ry="3.1119022"
       d="m 770.17193,601.19779 a 3.1119022,3.1119022 0 1 1 0.002,0.004"
       sodipodi:start="2.708457"
       sodipodi:end="8.990388"
       sodipodi:open="true"
       transform="matrix(0.50012002,0,0,0.50012002,-17.208244,199.04819)" />
    <path
       style="opacity:0.01000001;fill:#000000;fill-opacity:1;stroke:#88aa00;stroke-width:0;stroke-miterlimit:4;stroke-opacity:1;stroke-dasharray:none"
       d="M 509.72088,684.69268 C 419.35125,642.7499 341.21139,606.45652 336.07675,604.04074 c -5.13463,-2.41577 -17.17769,-8.00207 -26.76235,-12.41398 l -17.42665,-8.02167 -0.32504,-50.36806 -0.32503,-50.36805 37.04548,-0.761 c 20.37501,-0.41855 44.32569,-1.07089 53.22373,-1.44965 l 16.17826,-0.68865 -10.57683,6.42338 c -5.81726,3.53286 -12.06367,7.48175 -13.8809,8.77531 -1.81723,1.29356 -3.81476,2.35193 -4.43896,2.35193 -2.1508,0 -10.21801,15.36342 -11.62435,22.13774 -2.35271,11.33294 0.63528,23.06384 9.73839,38.23315 30.88498,51.46633 110.1911,100.64291 179.77915,111.47846 5.40002,0.84084 15.71374,1.24021 23.65046,0.91579 25.74791,-1.05247 38.89186,-9.27362 41.38224,-25.88337 0.46192,-3.08079 1.9926,-11.76185 3.40151,-19.29127 2.00582,-10.71934 2.42717,-16.79646 1.94187,-28.00711 -0.79839,-18.44277 -4.01306,-30.40116 -13.05079,-48.5482 -3.92102,-7.87311 -7.33154,-14.76595 -7.57892,-15.31742 -0.24739,-0.55147 11.35878,4.90673 25.79145,12.12932 20.80694,10.41248 26.36705,13.71346 26.8487,15.9398 0.77699,3.59146 25.49621,199.40185 25.19017,199.54099 -0.12597,0.0573 -74.16782,-34.2127 -164.53746,-76.1555 l 0,0 z"
       id="path3833"
       inkscape:connector-curvature="0" />
    <path
       style="opacity:0.01000001;fill:#000000;fill-opacity:1;stroke:#88aa00;stroke-width:0;stroke-miterlimit:4;stroke-opacity:1;stroke-dasharray:none"
       d="m 510.96564,685.28514 c -89.68501,-41.59818 -167.82487,-77.87693 -173.64412,-80.61946 -5.81926,-2.74252 -18.42246,-8.60182 -28.00712,-13.02067 l -17.42665,-8.03427 -0.32504,-50.37088 -0.32503,-50.37088 37.04548,-0.761 c 20.37501,-0.41855 44.32732,-1.05216 53.22736,-1.40801 l 16.18189,-0.64702 -4.97904,2.9112 c -2.73847,1.60116 -9.0458,5.53131 -14.01629,8.73367 -4.97049,3.20236 -9.47331,5.82248 -10.00627,5.82248 -1.15914,0 -8.22977,11.53144 -10.30372,16.80427 -0.80784,2.05385 -1.50045,7.93535 -1.53914,13.06998 -0.0568,7.53674 0.59019,10.86692 3.35743,17.28187 19.09504,44.26565 80.2754,92.32061 145.81824,114.53496 24.94914,8.45598 36.92706,10.61814 59.08912,10.66633 18.46546,0.0402 19.66078,-0.11115 27.84202,-3.52501 8.59842,-3.58791 14.55722,-8.70745 16.85613,-14.48207 0.68138,-1.71154 2.73256,-12.06585 4.55816,-23.00955 5.40751,-32.41549 3.17228,-52.25046 -8.71643,-77.34776 -3.05348,-6.44595 -6.74053,-13.38938 -8.19347,-15.42982 -1.45292,-2.04045 -2.35615,-3.7099 -2.00719,-3.7099 0.34897,0 10.75181,5.04128 23.11744,11.20284 12.36563,6.16157 23.04102,11.20285 23.72311,11.20285 0.68208,0 1.24016,0.6535 1.24016,1.45222 0,0.79872 0.36986,1.08236 0.82192,0.6303 3.30631,-3.30632 5.14333,7.60096 17.46896,103.72215 6.9792,54.42716 12.58063,99.26803 12.44761,99.64636 -0.13302,0.37833 -73.6205,-33.34701 -163.30552,-74.94518 l 0,0 z"
       id="path3835"
       inkscape:connector-curvature="0" />
    <path
       style="opacity:0.01000001000000000;fill:#008400;fill-opacity:1;stroke:#88aa00;stroke-width:0;stroke-miterlimit:4;stroke-opacity:1;stroke-dasharray:none"
       d="M 548.93085,667.41681 C 472.27058,656.88917 379.15104,593.80591 361.07807,540.1571 c -3.27165,-9.71173 -3.28703,-17.04501 -0.0539,-25.68641 3.54869,-9.48472 8.29034,-14.09459 25.48377,-24.77552 l 14.95553,-9.2907 67.42862,-1.5242 67.42863,-1.52419 11.23446,7.69463 c 31.50424,21.57766 60.25357,64.10737 66.06762,97.7357 2.57012,14.86553 0.18571,46.00305 -5.02253,65.5882 -1.41304,5.31357 -9.05453,12.54988 -16.8476,15.95427 -5.49771,2.40167 -20.19504,5.04829 -26.8784,4.84014 -2.26503,-0.0705 -9.43958,-0.85903 -15.94345,-1.75221 z"
       id="path3837"
       inkscape:connector-curvature="0" />
    <path
       style="fill:#e7e6e0;fill-opacity:1;stroke:#88aa00;stroke-width:0;stroke-miterlimit:4;stroke-opacity:1;stroke-dasharray:none"
       d="m 668.42788,757.91373 c -2.39616,-1.0595 -9.11787,-4.13692 -14.93713,-6.8387 -5.81925,-2.70178 -14.22139,-6.59725 -18.67141,-8.6566 -4.45002,-2.05937 -12.01194,-5.56534 -16.80427,-7.79105 -4.79233,-2.22572 -11.79411,-5.4576 -15.55951,-7.18196 -11.96546,-5.47957 -36.32528,-16.74885 -49.79043,-23.03392 -4.45002,-2.07712 -11.73187,-5.44073 -16.18189,-7.47468 -13.4535,-6.14914 -25.04888,-11.49933 -34.23092,-15.79442 -4.79233,-2.2417 -12.63432,-5.88761 -17.42665,-8.10202 -4.79233,-2.21441 -13.19447,-6.13937 -18.67141,-8.72214 -5.47695,-2.58277 -13.87909,-6.48926 -18.67142,-8.68109 -4.79232,-2.19182 -12.07418,-5.54246 -16.18189,-7.44584 -4.10771,-1.90339 -11.10949,-5.14558 -15.55951,-7.20488 -4.45002,-2.05929 -12.57208,-5.83825 -18.04903,-8.39767 -5.47694,-2.55942 -13.59901,-6.33771 -18.04903,-8.39619 -4.45002,-2.05848 -12.01194,-5.57648 -16.80427,-7.81779 -4.79233,-2.24129 -12.63432,-5.88221 -17.42665,-8.09094 -4.79233,-2.20872 -12.63432,-5.85375 -17.42665,-8.10006 -21.11538,-9.89744 -27.55448,-12.80219 -30.07304,-13.56629 -1.47857,-0.44857 -3.23732,-1.49407 -3.90835,-2.32334 -0.71604,-0.88489 -1.59423,-22.12454 -2.12583,-51.41491 l -0.9058,-49.90717 46.51363,-0.87025 c 25.58249,-0.47864 49.59441,-1.13068 53.35981,-1.44897 3.7654,-0.3183 6.00597,-0.20892 4.97904,0.24305 -1.02693,0.45198 -5.02916,2.91165 -8.89386,5.46593 -3.86469,2.55429 -9.74618,6.1802 -13.06998,8.05759 -14.86899,8.39849 -21.42458,30.79086 -14.209,48.53464 14.94478,36.75062 56.30523,74.39998 111.48087,101.47818 21.5374,10.56979 42.64935,18.24123 62.27506,22.62892 9.84096,2.20011 16.40538,2.78328 31.70438,2.81655 18.49322,0.0402 19.65085,-0.10704 27.89898,-3.5478 15.0985,-8.11002 18.74145,-26.90991 22.55407,-44.33354 0.85711,-3.91697 -0.73595,4.34006 0,0 2.59769,-15.14488 1.87079,-35.37963 -1.76629,-49.16805 -1.44469,-5.47695 -5.8938,-16.53976 -9.8869,-24.58402 -3.9931,-8.04427 -7.17462,-14.62594 -7.07006,-14.62594 0.85044,0 45.15027,21.34501 46.24629,22.28288 0.78283,0.66986 1.72994,0.91132 2.10467,0.53658 1.24329,-1.2433 4.44569,12.4489 6.45365,27.59335 1.08927,8.21542 2.22335,16.61756 2.52019,18.67141 0.29684,2.05386 0.81245,5.97485 1.14578,8.71333 0.33333,2.73847 0.88815,7.21961 1.23292,9.95808 0.34478,2.73848 0.93066,7.49969 1.30196,10.58047 0.6544,5.42976 4.04718,31.64245 5.07504,39.20996 0.27896,2.05386 0.84415,6.535 1.25596,9.95809 0.41182,3.42309 0.93833,7.62416 1.17004,9.33571 0.23171,1.71154 0.78023,6.47275 1.21893,10.58046 0.43869,4.10771 1.62681,13.63013 2.64025,21.16094 2.19265,16.29337 2.57554,19.29737 3.45912,27.13902 0.37048,3.28795 0.93155,6.39548 1.24684,6.90562 0.31528,0.51014 0.1901,1.52789 -0.27819,2.26169 -0.58535,0.9172 -2.21298,0.73213 -5.20811,-0.59222 z"
       id="path3839"
       inkscape:connector-curvature="0"
       sodipodi:nodetypes="csssssssssssssssssssscssssssssscscssssssssssssssssccc" />
    <path
       style="fill:#e7e6e0;fill-opacity:1;stroke:#88aa00;stroke-width:0;stroke-miterlimit:4;stroke-opacity:1;stroke-dasharray:none"
       d="m 290.63538,478.53769 c -1.69927,-4.79114 -21.70135,-92.29039 -21.2097,-92.78203 0.3242,-0.3242 38.40371,16.67696 84.62112,37.78035 46.21743,21.1034 83.80009,38.60139 83.51704,38.88444 -0.28304,0.28305 -5.44891,2.17078 -11.4797,4.19497 -6.03079,2.02419 -14.04586,5.40587 -17.81126,7.51486 l -6.84618,3.83451 -36.72045,0.96055 c -57.48242,1.50365 -73.42968,1.4202 -74.07087,-0.38765 z"
       id="path3841"
       inkscape:connector-curvature="0" />
    <path
       style="fill:#e7e6e0;fill-opacity:1;stroke:#88aa00;stroke-width:0;stroke-miterlimit:4;stroke-opacity:1;stroke-dasharray:none"
       d="m 276.55011,475.41802 c -6.38185,-49.58936 -11.38817,-90.37766 -11.12516,-90.64068 0.26302,-0.26301 5.64427,21.49567 11.95833,48.35262 l 11.48013,48.83083 -0.35497,41.80984 -0.35498,41.80985 -11.60335,-90.16246 z"
       id="path3843"
       inkscape:connector-curvature="0" />
  </g>
</svg>
